<svg clip-rule="evenodd" fill-rule="evenodd" height="512" image-rendering="optimizeQuality" shape-rendering="geometricPrecision" text-rendering="geometricPrecision" viewBox="0 0 512 512" width="512" xmlns="http://www.w3.org/2000/svg"><g id="Layer_x0020_1"><path d="m335 495c-39 0-72-32-72-71v-351c0-55 74-77 105-30 3-1 7-1 11-1 26 0 48 18 55 43 35 9 50 48 34 80 18 19 25 48 16 73 35 20 37 71 5 95 1 5 2 10 2 16 0 16-6 31-15 43v6c0 40-39 65-76 53-11 26-37 44-65 44zm-252-98s-1 0-2 0c-10-1-21-1-31 2 1 32 35 50 63 36 4-2 9 0 10 4 7 24 29 41 54 41 32 0 57-26 57-57v-5c-3 4-11 16-17 16h-37c-8 30-53 24-53-7 0-32 45-38 53-8h34l20-23v-90c-7 3-55 22-58 22h-37c-9 30-54 24-54-8 0-31 45-37 53-7h37l59-23v-69l-59-22h-37c-8 30-53 24-53-7 0-32 45-38 53-8 6 0 38-1 41 0l55 21v-89l-20-24h-34c-8 30-53 24-53-7 0-13 8-23 20-26-5-1-7-2-14-2-20 0-37 14-41 33 3 11 9 20 16 28 9 11 18 15 26 24 8 6-1 16-8 11-1 0-9-6-19-15l-6 25c-2 9-16 6-14-3l8-35c-6-7-11-16-15-25-25 9-36 41-20 63 2 3 2 7-1 10-19 16-26 45-14 66 2 4 0 9-4 10-32 12-35 57-6 74 8 4 1 12 1 26 0 13 4 25 12 36 11-3 23-4 33-3 17-17 25-25 25-25 7-7 17 3 11 10-1 0-6 6-18 18 13 3 22 7 23 8 7 3 5 14-3 14-1 0-2 0-3-1 0 0-21-9-33-9zm29-89c-16 0-17 25 0 25s17-25 0-25zm0-129c-17 0-16 25 0 25 17 0 17-25 0-25zm65 316c-28 0-54-18-65-44-36 12-76-12-76-53 0-2 0-3 0-5-13-17-17-39-13-60-33-24-30-75 6-95-8-25-3-54 16-73-18-28-1-71 34-80 6-25 28-43 55-43 4 0 8 0 11 1 31-46 104-26 104 30v351c0 39-33 71-72 71zm57-402v-20c0-43-59-57-79-18-1 1-2 2-3 3 13-1 25 7 29 20h36c2 0 4 0 6 2zm-80 321c-17 0-16 25 0 25 17 0 17-25 0-25zm0-341c-17 0-16 25 0 25 17 0 17-25 0-25zm260 312c-12-12-18-18-18-18-6-7 4-17 11-10 0 0 8 9 25 26 10-1 21-1 31 2 12-14 16-36 10-53-1-3 1-7 4-9 29-16 25-62-6-74-4-2-6-6-4-10 11-20 6-50-14-67-8-7 6-13 6-33 0-18-11-34-27-39-3 9-9 17-14 24 5 24 7 36 7 36 2 9-12 12-14 3 0 0-2-8-6-25-11 10-19 16-23 16-7 0-9-9-4-13 0 0 34-22 42-51-4-19-21-34-41-34-9 0-9 1-14 2 31 8 25 54-7 54-12 0-23-8-26-20h-34l-20 24v89c7-2 54-21 58-21h37c8-29 54-24 54 8 0 31-45 37-53 7h-37l-59 22v69l60 23h36c8-30 53-25 53 7 0 15-12 28-27 28-13 0-23-9-27-20-5 0-37 0-40-1l-55-21v89l20 24h34c8-29 53-24 53 8 0 31-45 37-53 7h-37c-2 0-4-1-6-2l-11-14v6c0 31 25 56 57 56 25 0 47-16 54-41 1-4 7-6 11-4 20 13 61 1 61-36-30-9-63 8-68 8-8 0-10-10-3-14 1 0 10-4 24-8zm-14-77c-7 0-12 5-13 12s6 13 13 13c17 0 16-25 0-25zm0-129c-17 0-17 25 0 25 16 0 17-25 0-25zm-80-147c-23 0-42 18-42 41v20l11-13c2-2 4-2 6-2h36c4-13 16-22 30-20-2-1-3-2-4-4-7-14-21-22-37-22zm25 395c0 7 6 12 13 12 17 0 17-25 0-25-7 0-13 5-13 13zm13-354c-17 0-17 25 0 25s17-25 0-25z" fill="#4d4d4d"/><path d="m407 357s8 9 25 26c10-1 21-1 31 2 12-14 16-36 10-53-1-3 1-7 4-9 29-16 25-62-6-74-4-2-6-6-4-10 11-20 6-50-14-67-8-7 6-13 6-33 0-18-11-34-27-39-3 9-9 17-14 24 5 24 7 36 7 36 2 9-12 12-14 3 0 0-2-8-6-25-11 10-19 16-23 16-7 0-9-9-4-13 0 0 34-22 42-51-4-19-21-34-41-34-9 0-9 1-14 2 31 8 25 54-7 54-12 0-23-8-26-20h-34l-20 24v89c7-2 54-21 58-21h37c8-29 54-24 54 8 0 31-45 37-53 7h-37l-59 22v69l60 23h36c8-30 53-25 53 7 0 15-12 28-27 28-13 0-23-9-27-20-5 0-37 0-40-1l-55-21v89l20 24h34c8-29 53-24 53 8 0 31-45 37-53 7h-37c-2 0-4-1-6-2l-11-14v6c0 31 25 56 57 56 25 0 47-16 54-41 1-4 7-6 11-4 20 13 61 1 61-36-30-9-63 8-68 8-8 0-10-10-3-14 1 0 10-4 24-8-12-12-18-18-18-18-6-7 4-17 11-10z" fill="#f3a766"/><g fill="#ffe600"><path d="m400 333c17 0 16-25 0-25-7 0-12 5-13 12s6 13 13 13z"/><path d="m358 439c17 0 17-25 0-25-7 0-13 5-13 13 0 7 6 12 13 12z"/><path d="m400 204c16 0 17-25 0-25s-17 25 0 25z"/><path d="m358 98c17 0 17-25 0-25s-17 25 0 25z"/></g><path d="m331 78c4-13 16-22 30-20-2-1-3-2-4-4-7-14-21-22-37-22-23 0-42 18-42 41v20l11-13c2-2 4-2 6-2z" fill="#f3a766"/><path d="m234 205v-89l-20-24h-34c-8 30-53 24-53-7 0-13 8-23 20-26-5-1-7-2-14-2-20 0-37 14-41 33 3 11 9 20 16 28 9 11 18 15 26 24 8 6-1 16-8 11-1 0-9-6-19-15l-6 25c-2 9-16 6-14-3l8-35c-6-7-11-16-15-25-25 9-36 41-20 63 2 3 2 7-1 10-19 16-26 45-14 66 2 4 0 9-4 10-32 12-35 57-6 74 8 4 1 12 1 26 0 13 4 25 12 36 11-3 23-4 33-3 17-17 25-25 25-25 7-7 17 3 11 10-1 0-6 6-18 18 13 3 22 7 23 8 7 3 5 14-3 14-1 0-2 0-3-1 0 0-21-9-33-9 0 0-1 0-2 0-10-1-21-1-31 2 1 32 35 50 63 36 4-2 9 0 10 4 7 24 29 41 54 41 32 0 57-26 57-57v-5c-3 4-11 16-17 16h-37c-8 30-53 24-53-7 0-32 45-38 53-8h34l20-23v-90c-7 3-55 22-58 22h-37c-9 30-54 24-54-8 0-31 45-37 53-7h37l59-23v-69l-59-22h-37c-8 30-53 24-53-7 0-32 45-38 53-8 6 0 38-1 41 0z" fill="#f3a766"/><path d="m181 78h36c2 0 4 0 6 2l11 13v-20c0-43-59-57-79-18-1 1-2 2-3 3 13-1 25 7 29 20z" fill="#f3a766"/><path d="m154 98c17 0 17-25 0-25s-16 25 0 25z" fill="#ffe600"/><path d="m112 204c17 0 17-25 0-25s-16 25 0 25z" fill="#ffe600"/><path d="m112 308c-16 0-17 25 0 25s17-25 0-25z" fill="#ffe600"/><path d="m154 414c-17 0-16 25 0 25 17 0 17-25 0-25z" fill="#ffe600"/></g></svg>