<svg id="Слой_1" height="512" viewBox="0 0 512 512" width="512" xmlns="http://www.w3.org/2000/svg" data-name="Слой 1"><path d="m70 256s-12.81 16.23 5.76 30.52 40.34-20.11 44.28-33 22.52-18.29 17.63-28.59c0 0-23.22 5.31-38.53 11.3s-21.29 12.59-29.14 19.77z" fill="#7dffff"/><path d="m9.42 184.78c4.72-42.16 15.01-114.49 48.58-144.78s75.52-39.73 130.24-23.31 62.35-11.29 136.44-11.78 50.72 50.32 19.48 98.38-68.44 72.15-115.23 80.39-42.61 25.78-86.64 47.93-78.77 50.68-113 47.68-22.56-70.51-19.87-94.51z" fill="#9b3140"/><path d="" fill="#fadc4b"/><path d="m186.91 133.29c-12.79 45.57 6.69 46.14-19.66 83.06 14.58-11.44 30.87-24.84 53.15-30.94-6.09-5.5-11.79-12-12-25.22-.49-32.34 11.22-67.29 27.64-92.38s-3.15-38.19 20.86-52.81c-16.56 4.68-41.21 6.51-60.52 3.91 6.53 1.19 27.84 8.75 23.94 25.53-4.81 20.64-20.62 43.28-33.41 88.85z" fill="#ffe3b8"/><path d="m34.43 284.41q-2.76 0-5.53-.24a25.38 25.38 0 0 1 -18.16-9.6c-15.08-18.66-10-59.21-7-83.44.32-2.57.61-4.89.83-6.91 5.43-48.98 16.63-117.62 50.15-147.84 36.33-32.76 80.47-40.73 134.93-24.38 29 8.71 43.81 4.52 64.29-1.27 16.52-4.73 37.06-10.5 70.71-10.73 26.78-.18 43.35 6.09 50.47 19.14 11.88 21.78-6.89 56.11-26.85 86.86-30.89 47.53-68.54 73.76-118.5 82.54-26.47 4.66-35.45 12.12-47.88 22.44-8.9 7.4-19 15.78-37.41 25-11.89 6-23.09 12.43-33.91 18.66-27.57 15.9-51.67 29.77-76.14 29.77zm104.13-270.76c-29.5 0-55 10-77.27 30-31 28-41.69 94.25-47 141.66-.23 2-.52 4.41-.85 7-2.63 21.19-7.54 60.64 4.92 76.06a15.7 15.7 0 0 0 11.39 6c23.32 2 47.7-12 75.93-28.25 10.94-6.3 22.26-12.82 34.4-18.92 17.41-8.76 27-16.77 35.55-23.83 12.56-10.37 23.37-19.37 52.44-24.52 47.09-8.29 82.67-33.14 112-78.23 16-24.55 36.07-59.22 26.47-76.77-5.18-9.47-19.23-14.18-41.81-14-32.29.21-51.32 5.6-68.1 10.35-21.24 6-38 10.76-69.78 1.23q-25.79-7.78-48.29-7.78z"/><path d="" fill="none"/><path d="m167.25 221.25a4.9 4.9 0 0 1 -4-7.75c14.42-20.2 14.22-28.35 13.92-40.68-.23-9.43-.52-21.16 5-40.86 7.34-26.14 15.65-44.81 22.32-59.81 5.05-11.36 9-20.33 11-28.84a10.83 10.83 0 0 0 -1.49-8.82c-4.16-6.34-14.29-10-18.55-10.77a4.9 4.9 0 0 1 1.55-9.72c18 2.43 42.08.88 58.54-3.77a4.9 4.9 0 0 1 3.89 8.91c-10.83 6.6-10.87 11.93-10.94 20.76-.06 8-.14 18-8.35 30.56-17 26-27.29 60.32-26.84 89.62.17 11.51 5 16.81 10.37 21.66a4.9 4.9 0 0 1 -2 8.37c-20.23 5.54-35.65 17.67-49.25 28.37l-2.16 1.7a4.89 4.89 0 0 1 -3.01 1.07zm19.66-88 4.72 1.33c-5.13 18.28-4.88 28.74-4.65 38 .2 8.31.38 15.53-3.52 25.37a123.21 123.21 0 0 1 27.93-14.82c-4.4-5.41-7.72-12.4-7.88-22.88-.47-31.15 10.43-67.61 28.44-95.14 6.63-10.13 6.69-17.82 6.75-25.26 0-5.52.09-11.15 3-16.73a182.18 182.18 0 0 1 -22.88 1.88 25.73 25.73 0 0 1 3.42 4.14 20.71 20.71 0 0 1 2.85 16.42c-2.19 9.42-6.56 19.24-11.62 30.61-6.55 14.71-14.7 33-21.84 58.48z"/><path d="m98.81 253.94c-30.32 0-51.54-22.66-52.58-23.79a4.9 4.9 0 0 1 7.22-6.64c.26.28 26.36 28 59.49 18.64a4.9 4.9 0 1 1 2.66 9.44 61.69 61.69 0 0 1 -16.79 2.35z"/><path d="m302.08 116a4.9 4.9 0 0 1 -.95-9.72c.44-.09 37-7.69 57.14-36.58a4.9 4.9 0 1 1 8.05 5.6c-22.44 32.25-61.64 40.27-63.3 40.6a4.94 4.94 0 0 1 -.94.1z"/><path d="m85.26 294.87a20.18 20.18 0 0 1 -12.46-4.43c-6.42-4.94-10.31-10.71-11.56-17.14a4.9 4.9 0 0 1 3-5.47c13.05-5.31 26.86-13.26 41.48-21.68 8.7-5 17.69-10.19 27.16-15.19a4.9 4.9 0 0 1 5.94 7.61c-1.47 1.64-3.13 3.17-4.89 4.79-3.83 3.52-7.79 7.17-9.14 11.6-2.81 9.23-16.29 33.52-33 38.85a21.44 21.44 0 0 1 -6.53 1.06zm-13.12-19.75a22.69 22.69 0 0 0 6.64 7.55 10.2 10.2 0 0 0 10 1.8c11.47-3.67 23.71-23 26.56-32.37l.08-.26-4.88 2.81c-13.34 7.71-26.05 15.03-38.4 20.47z"/><path d="m210.33 475.3s-12.2 15.22 5.48 28.61 38.39-18.85 42.14-31 21.43-17.15 16.77-26.8c0 0-22.1 5-36.67 10.59s-20.28 11.82-27.72 18.6z" fill="#7dffff"/><path d="m332.48 253.44a34.7 34.7 0 0 0 -37.88-8.81 34.69 34.69 0 0 0 -42.27-.36 34.71 34.71 0 0 0 -42.36 17c-.81-.06-1.62-.09-2.44-.09a34.71 34.71 0 0 0 -33.53 43.82 34.71 34.71 0 0 0 -17 50.62 34.7 34.7 0 0 0 -8.47 55.64 34.7 34.7 0 0 0 .28 41.49c0 21.9 4.45 42.74 22.81 44.33 14 1.21 28.16-3.07 43.06-10a34.68 34.68 0 0 0 32.14-10.61c1.06.1 2.12.15 3.21.15a34.56 34.56 0 0 0 22.23-8.06 34.71 34.71 0 0 0 30.36-30.28c17.53-12.76 23.93-22.94 50.43-29.1a34.7 34.7 0 0 0 53.42-8.12h1.6a34.68 34.68 0 0 0 30.7-18.53 34.68 34.68 0 0 0 25.87-39.63 34.71 34.71 0 0 0 27.42-33.9c0-.42 0-.83 0-1.24a34.69 34.69 0 0 0 3.88-53.43 23.32 23.32 0 0 0 -6.93-6.89 34.69 34.69 0 0 0 -34.56-13.53 34.68 34.68 0 0 0 -46.88 3.54 34.65 34.65 0 0 0 -23.65 13.07" fill="#fcd65e"/><path d="" fill="#fadc4b"/><path d="m321.55 360.23c-12.18 42.71 6.37 43.25-18.71 77.86 3.26-2.52 6.62-5.11 10.11-7.66 11.37-8.31 24.26-16.29 40.47-20.66-4.35-3.87-8.49-8.67-10.36-16a35.65 35.65 0 0 1 -1-8.29c-.46-30.31 10.68-63.07 26.31-86.59s-6.43-35.11 16.41-48.83v-.69a142.25 142.25 0 0 1 -51.65 4 .14.14 0 0 0 -.05.27c7.86 2.18 23.62 9.33 20.31 23.35-4.61 19.3-19.66 40.53-31.84 83.24z" fill="#ffe3b8"/><path d="m224.83 512a19.62 19.62 0 0 1 -12-4.19c-6.15-4.66-9.89-10.11-11.1-16.2a4.9 4.9 0 0 1 9.62-1.92c.73 3.66 3.22 7.12 7.4 10.29a9.56 9.56 0 0 0 8.75 1.84c9.88-2.58 20.29-17.44 24.53-27.17a4.9 4.9 0 1 1 9 3.92c-4.87 11.17-17.15 29.11-31 32.74a20.38 20.38 0 0 1 -5.2.69z"/><path d="m302.85 443a4.9 4.9 0 0 1 -4-7.78c13.65-18.84 13.46-26.43 13.18-37.91-.22-8.86-.49-19.89 4.78-38.41 7-24.53 14.9-42 21.26-56.12 4.8-10.63 8.6-19 10.47-27 2.76-11.71-14.83-16.94-16.85-17.5a5 5 0 0 1 1.9-9.87 136.63 136.63 0 0 0 49.8-3.82 4.9 4.9 0 0 1 6.22 4.73v.68a4.9 4.9 0 0 1 -2.38 4.2c-9.6 5.77-9.2 9.77-8.39 17.74.74 7.28 1.74 17.25-6.46 29.6-16.14 24.3-25.91 56.41-25.49 83.8a31 31 0 0 0 .9 7.15 4.9 4.9 0 0 1 -9.5 2.42 40.78 40.78 0 0 1 -1.2-9.42c-.45-29.27 9.94-63.52 27.12-89.38 6.26-9.43 5.56-16.42 4.87-23.18-.5-4.95-1-10.27 1.52-15.63a151.12 151.12 0 0 1 -18 1.62c4.75 4.88 7.38 11.27 5.53 19.1-2.09 8.86-6.25 18.08-11.08 28.76-6.23 13.78-14 30.93-20.77 54.77-4.87 17.08-4.63 26.85-4.41 35.48.19 7.7.36 14.4-3.18 23.43 2.4-1.57 4.72-3 7-4.33a4.9 4.9 0 0 1 4.89 8.5 160.36 160.36 0 0 0 -14.77 9.73c-3.33 2.43-6.5 4.87-10 7.58a4.89 4.89 0 0 1 -2.96 1.06z"/><path d="m183.87 373.44a36.94 36.94 0 1 1 0-73.88 4.9 4.9 0 1 1 0 9.81 27.13 27.13 0 1 0 0 54.26 4.9 4.9 0 1 1 0 9.81z"/><path d="m470.19 300.39a4.91 4.91 0 0 1 -4.67-6.4 27.16 27.16 0 0 0 -17.57-34.11 4.9 4.9 0 1 1 3-9.34 37 37 0 0 1 23.91 46.46 4.91 4.91 0 0 1 -4.67 3.39z"/><path d="m433.67 387.83a36.45 36.45 0 0 1 -28.4-13.52 4.9 4.9 0 0 1 7.61-6.19 26.77 26.77 0 1 0 40.74-34.71 4.9 4.9 0 1 1 7.31-6.54 36.58 36.58 0 0 1 -27.27 61z"/><path d="m271.44 443a4.91 4.91 0 0 1 -4-7.78c13.65-18.84 13.46-26.43 13.18-37.91-.22-8.86-.49-19.89 4.78-38.41a4.9 4.9 0 0 1 9.43 2.69c-4.87 17.08-4.63 26.85-4.41 35.48.31 12.51.56 22.39-15 43.91a4.9 4.9 0 0 1 -3.98 2.02z"/><path d="m176.52 502.2c-1.8 0-3.57-.08-5.34-.23-17.84-1.54-27-17.56-27.29-47.62a39.62 39.62 0 0 1 -1.58-42.59 39.61 39.61 0 0 1 8.15-58 39.62 39.62 0 0 1 18-51.63 39.61 39.61 0 0 1 38.73-45.94 39.62 39.62 0 0 1 44.33-17.37 39.61 39.61 0 0 1 43.95.29 39.61 39.61 0 0 1 40.65 10.94 4.9 4.9 0 1 1 -7.19 6.67 29.79 29.79 0 0 0 -32.52-7.57 4.9 4.9 0 0 1 -4.78-.72 29.78 29.78 0 0 0 -36.3-.31 4.91 4.91 0 0 1 -4.58.72 29.8 29.8 0 0 0 -36.38 14.57 4.91 4.91 0 0 1 -4.71 2.66c-.81-.06-1.48-.08-2.1-.08a29.81 29.81 0 0 0 -28.75 37.68 4.9 4.9 0 0 1 -3 5.87 29.8 29.8 0 0 0 -14.67 43.46 4.9 4.9 0 0 1 -1.93 6.94 29.79 29.79 0 0 0 -7.27 47.78 4.9 4.9 0 0 1 .51 6.41 29.79 29.79 0 0 0 .24 35.62 4.9 4.9 0 0 1 1 3c-.06 37.84 13.78 39 18.33 39.43 11.67 1 24.18-1.94 40.57-9.57a4.89 4.89 0 0 1 3-.37 29.94 29.94 0 0 0 27.6-9.11 4.93 4.93 0 0 1 4.06-1.57c1 .09 1.88.13 2.76.13a29.83 29.83 0 0 0 19.09-6.92 4.9 4.9 0 0 1 2.57-1.11 29.66 29.66 0 0 0 26.06-26 4.91 4.91 0 0 1 2-3.38c4.13-3 7.61-5.85 11-8.61 10.74-8.79 20-16.37 41.22-21.3a4.9 4.9 0 0 1 4.42 1.16 29.8 29.8 0 0 0 45.87-7 4.94 4.94 0 0 1 4.46-2.42h1.37a29.75 29.75 0 0 0 26.36-15.92 4.9 4.9 0 0 1 3.17-2.47 29.73 29.73 0 0 0 22.66-28.94 30.15 30.15 0 0 0 -.44-5.1 4.91 4.91 0 0 1 3.81-5.63 29.93 29.93 0 0 0 23.53-29.05c0-.31 0-.61 0-.91v-.15a4.91 4.91 0 0 1 2.06-4.17 29.88 29.88 0 0 0 12.58-24.32 29.54 29.54 0 0 0 -9.25-21.57 4.89 4.89 0 0 1 -.75-.91 18.59 18.59 0 0 0 -5.51-5.44 4.9 4.9 0 0 1 -1.24-1.18 29.79 29.79 0 0 0 -29.69-11.62 4.91 4.91 0 0 1 -4-1 29.77 29.77 0 0 0 -40.25 3 4.91 4.91 0 0 1 -3.08 1.53 30 30 0 0 0 -20.3 11.22 4.9 4.9 0 1 1 -7.71-6.07 39.85 39.85 0 0 1 25.19-14.68 39.77 39.77 0 0 1 27.67-11.28 39.16 39.16 0 0 1 22.78 7.21 39.58 39.58 0 0 1 36.73 15.1 28.22 28.22 0 0 1 7.3 7.34 39.25 39.25 0 0 1 11.87 28.26 39.7 39.7 0 0 1 -14.63 30.73 39.84 39.84 0 0 1 -27 36.37q.07 1.17.07 2.32a39.51 39.51 0 0 1 -28 37.88 39.52 39.52 0 0 1 -32.89 19.34 39.6 39.6 0 0 1 -57.37 8.54c-17.26 4.37-24.74 10.46-34.84 18.75-3 2.47-6.14 5-9.76 7.72a39.43 39.43 0 0 1 -32.9 32.22 39.67 39.67 0 0 1 -24.24 8.3h-1.27a39.77 39.77 0 0 1 -33.4 10.66c-15.02 6.81-27.33 10.01-38.81 10.01z"/><path d="m425.27 205.32a4.91 4.91 0 0 1 -4.66-3.38 173.5 173.5 0 0 0 -54.61-79.94 4.9 4.9 0 0 1 6.24-7.56 183.29 183.29 0 0 1 57.68 84.42 4.91 4.91 0 0 1 -4.66 6.43z"/><path d="m114.27 370a4.89 4.89 0 0 1 -3.88-1.9c-14.19-18.35-22.1-33.15-28.2-52.77a4.9 4.9 0 1 1 9.37-2.91c5.8 18.64 13 32.11 26.59 49.68a4.9 4.9 0 0 1 -3.88 7.9z"/><path d="m428.45 209.9a4.88 4.88 0 0 1 -1.71-.31l-25.74-9.59a4.9 4.9 0 1 1 3.42-9.19l21.15 7.85 7.85-21.15a4.9 4.9 0 0 1 9.2 3.41l-9.56 25.75a4.91 4.91 0 0 1 -4.61 3.23z"/><path d="m74.3 343.45a4.9 4.9 0 0 1 -4.37-7.12l12.42-24.49a4.9 4.9 0 0 1 6.59-2.16l24.49 12.42a4.9 4.9 0 0 1 -4.44 8.75l-20.12-10.2-10.2 20.12a4.9 4.9 0 0 1 -4.37 2.68z"/></svg>